<?xml version="1.0" encoding="utf-8"?>
<!-- Generator: Adobe Illustrator 24.0.1, SVG Export Plug-In . SVG Version: 6.00 Build 0)  -->
<svg version="1.1" id="Layer_1" xmlns="http://www.w3.org/2000/svg" xmlns:xlink="http://www.w3.org/1999/xlink" x="0px" y="0px"
	 viewBox="0 0 500 500" style="enable-background:new 0 0 500 500;" xml:space="preserve">
<style type="text/css">
	.st0{fill-rule:evenodd;clip-rule:evenodd;fill:url(#SVGID_1_);}
	.st1{fill-rule:evenodd;clip-rule:evenodd;fill:url(#SVGID_2_);}
	.st2{fill-rule:evenodd;clip-rule:evenodd;fill:url(#SVGID_3_);}
</style>
<g>
	<linearGradient id="SVGID_1_" gradientUnits="userSpaceOnUse" x1="-97.9826" y1="-5.9457" x2="526.2393" y2="149.6903">
		<stop  offset="0" style="stop-color:#F2AF22"/>
		<stop  offset="0.26" style="stop-color:#F89F21"/>
		<stop  offset="0.52" style="stop-color:#F68C22"/>
		<stop  offset="0.75" style="stop-color:#F07B23"/>
		<stop  offset="1" style="stop-color:#E56624"/>
	</linearGradient>
	<path class="st0" d="M53.22,52.27c-2.75,0-5.37,0.16-7.87,0.46c3.15,0.32,6.14,1.14,8.92,2.35h0.01l121.12,51.44l190.16,80.77
		l103.11-77.67v-0.01c0.64-0.49,1.27-1.02,1.91-1.56l0.38-0.69c8.44-14.76,9.78-28.62,3.76-38.99
		C468.7,58,456.01,52.27,438.99,52.27H53.22z"/>
	<linearGradient id="SVGID_2_" gradientUnits="userSpaceOnUse" x1="117.189" y1="446.5062" x2="117.189" y2="58.2404">
		<stop  offset="0" style="stop-color:#F2AF22"/>
		<stop  offset="0.26" style="stop-color:#F89F21"/>
		<stop  offset="0.52" style="stop-color:#F68C22"/>
		<stop  offset="0.75" style="stop-color:#F07B23"/>
		<stop  offset="1" style="stop-color:#E56624"/>
	</linearGradient>
	<path class="st1" d="M17.55,68.34c-6,10.36-4.62,24.19,3.86,38.93l193.89,336.98c1.63,2.84,3.38,5.44,5.19,7.77
		c-0.12-0.22-0.28-0.38-0.39-0.57c-2.16-3.73-3.41-7.74-3.86-11.75h-0.01l-40.85-333.17L54.28,55.08h-0.01
		c-2.78-1.21-5.78-2.03-8.92-2.35C32.32,54.24,22.58,59.65,17.55,68.34z"/>
	<linearGradient id="SVGID_3_" gradientUnits="userSpaceOnUse" x1="583.3705" y1="23.2114" x2="23.8018" y2="602.6618">
		<stop  offset="0" style="stop-color:#F2AF22"/>
		<stop  offset="0.26" style="stop-color:#F89F21"/>
		<stop  offset="0.52" style="stop-color:#F68C22"/>
		<stop  offset="0.75" style="stop-color:#F07B23"/>
		<stop  offset="1" style="stop-color:#E56624"/>
	</linearGradient>
	<path class="st2" d="M470.56,108.06L470.56,108.06l-192.14,336.1c-8.45,14.8-19.67,22.92-31.57,22.92
		c-9.59,0-18.74-5.3-26.36-15.06c-0.12-0.22-0.28-0.38-0.39-0.57c-2.16-3.73-3.41-7.74-3.86-11.75h-0.01l-15.71-128.11l165.02-124.3
		l103.11-77.67v-0.01C469.31,109.12,469.94,108.61,470.56,108.06z"/>
</g>
</svg>
