<?xml version="1.0" encoding="utf-8"?>
<!-- Generator: Adobe Illustrator 24.0.1, SVG Export Plug-In . SVG Version: 6.00 Build 0)  -->
<svg version="1.1" id="Layer_1" xmlns="http://www.w3.org/2000/svg" xmlns:xlink="http://www.w3.org/1999/xlink" x="0px" y="0px"
	 viewBox="0 0 500 500" style="enable-background:new 0 0 500 500;" xml:space="preserve">
<style type="text/css">
	.st0{fill:#FFFFFF;}
	.st1{fill:#0083CA;}
	.st2{clip-path:url(#SVGID_1_);fill:#0083CA;}
	.st3{clip-path:url(#SVGID_1_);fill:#0085CC;}
	.st4{clip-path:url(#SVGID_1_);fill:#0087CD;}
	.st5{clip-path:url(#SVGID_1_);fill:#0088CE;}
	.st6{clip-path:url(#SVGID_1_);fill:#008ACF;}
	.st7{clip-path:url(#SVGID_1_);fill:#008CD0;}
	.st8{clip-path:url(#SVGID_1_);fill:#008ED2;}
	.st9{clip-path:url(#SVGID_1_);fill:#0090D3;}
	.st10{clip-path:url(#SVGID_1_);fill:#0091D4;}
	.st11{clip-path:url(#SVGID_1_);fill:#0093D5;}
	.st12{clip-path:url(#SVGID_1_);fill:#0095D7;}
	.st13{clip-path:url(#SVGID_1_);fill:#0097D8;}
	.st14{clip-path:url(#SVGID_1_);fill:#0099D9;}
	.st15{clip-path:url(#SVGID_1_);fill:#009BDA;}
	.st16{clip-path:url(#SVGID_1_);fill:#009DDC;}
	.st17{clip-path:url(#SVGID_1_);fill:#009FDD;}
	.st18{clip-path:url(#SVGID_1_);fill:#00A1DE;}
	.st19{clip-path:url(#SVGID_1_);fill:#00A3E0;}
	.st20{clip-path:url(#SVGID_1_);fill:#00A5E1;}
	.st21{clip-path:url(#SVGID_1_);fill:#00A7E2;}
	.st22{clip-path:url(#SVGID_1_);fill:#00A9E3;}
	.st23{clip-path:url(#SVGID_1_);fill:#00ABE5;}
	.st24{clip-path:url(#SVGID_1_);fill:#00ADE6;}
	.st25{clip-path:url(#SVGID_1_);fill:#00AFE7;}
	.st26{clip-path:url(#SVGID_1_);fill:#00B2E9;}
	.st27{clip-path:url(#SVGID_1_);fill:#00B4EA;}
	.st28{clip-path:url(#SVGID_1_);fill:#00B6EC;}
	.st29{clip-path:url(#SVGID_1_);fill:#00B9ED;}
	.st30{clip-path:url(#SVGID_1_);fill:#07BBEE;}
	.st31{clip-path:url(#SVGID_1_);fill:#0FBDEF;}
	.st32{clip-path:url(#SVGID_1_);fill:#19C0F1;}
	.st33{clip-path:url(#SVGID_1_);fill:#1EC4F4;}
	.st34{clip-path:url(#SVGID_1_);fill:#33C6F4;}
	.st35{clip-path:url(#SVGID_1_);fill:#3FC7F4;}
	.st36{clip-path:url(#SVGID_1_);fill:#4AC8F5;}
	.st37{clip-path:url(#SVGID_1_);fill:#54CAF5;}
	.st38{clip-path:url(#SVGID_1_);fill:#5DCCF5;}
	.st39{clip-path:url(#SVGID_1_);fill:#64CDF6;}
	.st40{clip-path:url(#SVGID_1_);fill:#6DCFF6;}
	.st41{clip-path:url(#SVGID_1_);fill:#73D1F6;}
	.st42{clip-path:url(#SVGID_1_);fill:#7AD2F7;}
	.st43{clip-path:url(#SVGID_1_);fill:#81D4F7;}
	.st44{clip-path:url(#SVGID_1_);fill:#88D6F8;}
	.st45{clip-path:url(#SVGID_1_);fill:#8FD8F8;}
	.st46{clip-path:url(#SVGID_1_);fill:#95DAF8;}
	.st47{clip-path:url(#SVGID_1_);fill:#9ADCF9;}
	.st48{clip-path:url(#SVGID_1_);fill:#A1DEF9;}
	.st49{clip-path:url(#SVGID_1_);fill:#A7DFF9;}
	.st50{clip-path:url(#SVGID_1_);fill:#ADE1FA;}
	.st51{clip-path:url(#SVGID_1_);fill:#B2E3FA;}
	.st52{clip-path:url(#SVGID_1_);fill:#B9E5FB;}
	.st53{clip-path:url(#SVGID_1_);fill:#BEE7FB;}
	.st54{clip-path:url(#SVGID_1_);fill:#C3E9FB;}
	.st55{clip-path:url(#SVGID_1_);fill:#CAEBFC;}
	.st56{clip-path:url(#SVGID_1_);fill:#CFEDFC;}
	.st57{clip-path:url(#SVGID_1_);fill:#D5EFFC;}
	.st58{clip-path:url(#SVGID_1_);fill:#DBF1FD;}
	.st59{clip-path:url(#SVGID_1_);fill:#E0F3FD;}
	.st60{clip-path:url(#SVGID_1_);fill:#E6F6FD;}
	.st61{clip-path:url(#SVGID_1_);fill:#EBF7FE;}
	.st62{clip-path:url(#SVGID_1_);fill:#F0F9FE;}
	.st63{clip-path:url(#SVGID_1_);fill:#F7FCFE;}
	.st64{clip-path:url(#SVGID_1_);fill:#FFFFFF;}
</style>
<path class="st0" d="M484.95,250.19c0,129.58-105.21,234.7-234.54,234.7c-129.62,0-234.64-105.12-234.64-234.7
	c0-129.52,105.02-234.53,234.64-234.53C379.75,15.66,484.95,120.67,484.95,250.19"/>
<path class="st1" d="M250.38,473.1c123.53,0,223.6-100.2,223.6-223.66c0-123.51-100.08-223.6-223.6-223.6S26.83,125.93,26.83,249.45
	C26.83,373.08,126.85,473.1,250.38,473.1"/>
<g>
	<defs>
		<path id="SVGID_3_" d="M26.84,249.45c0,123.63,100.01,223.65,223.55,223.65c123.51,0,223.6-100.2,223.6-223.65
			c0-123.51-100.09-223.6-223.6-223.6C126.85,25.85,26.84,125.93,26.84,249.45z"/>
	</defs>
	<clipPath id="SVGID_1_">
		<use xlink:href="#SVGID_3_"  style="overflow:visible;"/>
	</clipPath>
	<path class="st2" d="M251.31,350.97c98.26,0,182.5,27.3,218.6,66.23c12.05-27.72,18.69-58.48,18.69-90.59
		c0-128.22-106.29-232.21-237.29-232.21c-131.01,0-237.34,104.05-237.34,232.22c0,32.18,6.77,62.86,18.84,90.58
		C68.8,378.26,153.06,350.97,251.31,350.97"/>
	<path class="st3" d="M251.28,351.21c98.01,0,182.03,27.07,218.03,65.69c12.02-27.49,18.66-58,18.66-89.86
		c0-127.17-106.02-230.66-236.69-230.66c-130.66,0-236.72,103.54-236.72,230.67c0,31.93,6.74,62.37,18.79,89.85
		C69.24,378.28,153.28,351.21,251.28,351.21"/>
	<path class="st4" d="M251.25,351.46c97.76,0,181.56,26.86,217.47,65.16c12-27.28,18.61-57.53,18.61-89.14
		c0-126.17-105.74-229.1-236.08-229.1c-130.34,0-236.11,102.98-236.11,229.11c0,31.68,6.72,61.85,18.72,89.12
		C69.68,378.32,153.51,351.46,251.25,351.46"/>
	<path class="st5" d="M251.21,351.71c97.5,0,181.09,26.63,216.91,64.62c11.95-27.05,18.56-57.06,18.56-88.4
		c0-125.12-105.47-227.57-235.47-227.57c-129.99,0-235.5,102.5-235.5,227.57c0,31.42,6.69,61.37,18.67,88.4
		C70.11,378.33,153.72,351.71,251.21,351.71"/>
	<path class="st6" d="M251.19,351.95c97.24,0,180.62,26.41,216.34,64.09c11.93-26.82,18.52-56.59,18.52-87.67
		c0-124.11-105.19-226.03-234.86-226.03c-129.65,0-234.89,101.97-234.89,226.03c0,31.15,6.67,60.86,18.62,87.67
		C70.56,378.36,153.95,351.95,251.19,351.95"/>
	<path class="st7" d="M251.16,352.2c96.98,0,180.16,26.2,215.77,63.54c11.92-26.59,18.49-56.08,18.49-86.93
		c0-123.06-104.92-224.5-234.26-224.5c-129.33,0-234.28,101.47-234.28,224.51c0,30.9,6.63,60.34,18.57,86.92
		C71,378.4,154.18,352.2,251.16,352.2"/>
	<path class="st8" d="M251.13,352.45c96.74,0,179.69,25.98,215.2,63c11.88-26.36,18.45-55.62,18.45-86.2
		c0-122.04-104.67-222.92-233.66-222.92c-128.98,0-233.68,100.91-233.68,222.93c0,30.63,6.63,59.84,18.53,86.19
		C71.43,378.42,154.4,352.45,251.13,352.45"/>
	<path class="st9" d="M251.1,352.68c96.48,0,179.22,25.77,214.64,62.49c11.85-26.14,18.41-55.16,18.41-85.48
		c0-121.02-104.38-221.39-233.04-221.39c-128.66,0-233.07,100.4-233.07,221.4c0,30.38,6.6,59.34,18.47,85.46
		C71.86,378.45,154.63,352.68,251.1,352.68"/>
	<path class="st10" d="M251.07,352.94c96.23,0,178.75,25.54,214.07,61.95c11.82-25.93,18.37-54.67,18.37-84.75
		c0-119.99-104.11-219.86-232.44-219.86c-128.31,0-232.47,99.92-232.47,219.86c0,30.13,6.59,58.85,18.42,84.75
		C72.3,378.48,154.85,352.94,251.07,352.94"/>
	<path class="st11" d="M251.04,353.19c95.97,0,178.28,25.33,213.51,61.41c11.79-25.7,18.32-54.2,18.32-84.02
		c0-118.95-103.83-218.32-231.83-218.32c-127.97,0-231.85,99.39-231.85,218.32c0,29.88,6.56,58.35,18.36,84.02
		C72.75,378.51,155.08,353.19,251.04,353.19"/>
	<path class="st12" d="M251.01,353.43c95.72,0,177.82,25.1,212.94,60.87c11.76-25.47,18.29-53.72,18.29-83.28
		c0-117.93-103.57-216.76-231.23-216.76c-127.63,0-231.24,98.86-231.24,216.77c0,29.6,6.53,57.83,18.31,83.27
		C73.19,378.53,155.28,353.43,251.01,353.43"/>
	<path class="st13" d="M250.98,353.67c95.47,0,177.35,24.88,212.37,60.36c11.74-25.25,18.24-53.26,18.24-82.58
		c0-116.89-103.28-215.22-230.61-215.22c-127.3,0-230.64,98.35-230.64,215.23c0,29.35,6.51,57.33,18.26,82.56
		C73.62,378.55,155.51,353.67,250.98,353.67"/>
	<path class="st14" d="M250.94,353.93c95.22,0,176.89,24.67,211.82,59.8c11.7-25.02,18.19-52.78,18.19-81.83
		c0-115.88-103.02-213.68-230.01-213.68c-126.94,0-230.01,97.85-230.01,213.69c0,29.08,6.48,56.84,18.2,81.82
		C74.07,378.59,155.75,353.93,250.94,353.93"/>
	<path class="st15" d="M250.92,354.17c94.96,0,176.42,24.44,211.25,59.27c11.69-24.8,18.18-52.3,18.18-81.1
		c0-114.85-102.76-212.14-229.42-212.14c-126.62,0-229.41,97.29-229.41,212.14c0,28.84,6.46,56.32,18.15,81.1
		C74.5,378.61,155.97,354.17,250.92,354.17"/>
	<path class="st16" d="M250.88,354.42c94.71,0,175.95,24.22,210.68,58.73c11.65-24.57,18.13-51.83,18.13-80.36
		c0-113.82-102.47-210.61-228.81-210.61c-126.27,0-228.79,96.81-228.79,210.61c0,28.58,6.43,55.83,18.09,80.36
		C74.93,378.64,156.19,354.42,250.88,354.42"/>
	<path class="st17" d="M250.85,354.66c94.45,0,175.48,24,210.13,58.2c11.6-24.34,18.08-51.37,18.08-79.63
		c0-112.8-102.22-209.05-228.21-209.05c-125.93,0-228.19,96.28-228.19,209.06c0,28.3,6.42,55.31,18.04,79.62
		C75.36,378.66,156.41,354.66,250.85,354.66"/>
	<path class="st18" d="M250.82,354.92c94.19,0,175.01,23.79,209.55,57.65c11.59-24.12,18.04-50.87,18.04-78.89
		c0-111.75-101.93-207.52-227.59-207.52c-125.6,0-227.58,95.8-227.58,207.54c0,28.05,6.39,54.8,18,78.88
		C75.81,378.7,156.64,354.92,250.82,354.92"/>
	<path class="st19" d="M250.8,355.15c93.94,0,174.54,23.58,208.98,57.13c11.56-23.88,18-50.4,18-78.17
		c0-110.73-101.65-205.94-226.97-205.94c-125.27,0-226.98,95.24-226.98,205.94c0,27.81,6.37,54.32,17.95,78.17
		C76.25,378.73,156.86,355.15,250.8,355.15"/>
	<path class="st20" d="M250.77,355.41c93.69,0,174.07,23.34,208.41,56.59c11.53-23.68,17.96-49.93,17.96-77.44
		c0-109.72-101.39-204.43-226.37-204.43c-124.92,0-226.36,94.74-226.36,204.43c0,27.54,6.34,53.81,17.89,77.44
		C76.7,378.75,157.09,355.41,250.77,355.41"/>
	<path class="st21" d="M250.74,355.64c93.43,0,173.6,23.14,207.85,56.06c11.51-23.45,17.92-49.45,17.92-76.7
		c0-108.67-101.13-202.87-225.77-202.87c-124.59,0-225.75,94.2-225.75,202.87c0,27.28,6.32,53.31,17.83,76.7
		C77.13,378.78,157.32,355.64,250.74,355.64"/>
	<path class="st22" d="M250.71,355.89c93.18,0,173.14,22.92,207.29,55.51c11.47-23.21,17.86-48.97,17.86-75.97
		c0-107.64-100.84-201.34-225.16-201.34c-124.25,0-225.15,93.7-225.15,201.35c0,27.01,6.3,52.79,17.79,75.95
		C77.56,378.81,157.54,355.89,250.71,355.89"/>
	<path class="st23" d="M250.67,356.14c92.93,0,172.67,22.7,206.72,54.99c11.46-22.99,17.85-48.5,17.85-75.25
		c0-106.62-100.59-199.78-224.57-199.78c-123.91,0-224.52,93.19-224.52,199.78c0,26.77,6.26,52.3,17.72,75.25
		C78,378.84,157.76,356.14,250.67,356.14"/>
	<path class="st24" d="M250.65,356.38c92.66,0,172.21,22.47,206.15,54.45c11.42-22.76,17.79-48.02,17.79-74.5
		c0-105.58-100.3-198.24-223.94-198.24c-123.58,0-223.93,92.66-223.93,198.24c0,26.51,6.26,51.8,17.68,74.5
		C78.44,378.86,157.99,356.38,250.65,356.38"/>
	<path class="st25" d="M250.62,356.63c92.41,0,171.74,22.26,205.59,53.92c11.39-22.56,17.75-47.56,17.75-73.78
		c0-104.56-100.03-196.71-223.34-196.71c-123.24,0-223.32,92.16-223.32,196.71c0,26.24,6.22,51.29,17.62,73.78
		C78.88,378.89,158.21,356.63,250.62,356.63"/>
	<path class="st26" d="M250.59,356.89c92.16,0,171.28,22.03,205.03,53.37c11.35-22.33,17.71-47.08,17.71-73.07
		c0-103.52-99.75-195.15-222.74-195.15c-122.89,0-222.7,91.62-222.7,195.16c0,25.99,6.2,50.79,17.57,73.06
		C79.32,378.92,158.44,356.89,250.59,356.89"/>
	<path class="st27" d="M250.56,357.13c91.9,0,170.8,21.82,204.45,52.84c11.33-22.09,17.68-46.59,17.68-72.31
		c0-102.52-99.5-193.64-222.14-193.64c-122.56,0-222.1,91.12-222.1,193.64c0,25.74,6.18,50.28,17.53,72.31
		C79.76,378.95,158.65,357.13,250.56,357.13"/>
	<path class="st28" d="M250.53,357.37c91.65,0,170.33,21.61,203.89,52.32c11.3-21.87,17.63-46.14,17.63-71.59
		c0-101.47-99.21-192.09-221.52-192.09c-122.23,0-221.49,90.61-221.49,192.09c0,25.47,6.15,49.79,17.47,71.59
		C80.19,378.98,158.88,357.37,250.53,357.37"/>
	<path class="st29" d="M250.5,357.62c91.4,0,169.86,21.37,203.32,51.79c11.28-21.67,17.6-45.66,17.6-70.88
		c0-100.44-98.95-190.52-220.92-190.52c-121.88,0-220.87,90.08-220.87,190.52c0,25.23,6.13,49.29,17.42,70.88
		C80.63,378.99,159.11,357.62,250.5,357.62"/>
	<path class="st30" d="M250.47,357.87c91.13,0,169.39,21.16,202.76,51.23c11.24-21.42,17.55-45.17,17.55-70.12
		c0-99.43-98.68-189-220.31-189c-121.55,0-220.27,89.58-220.27,189c0,24.97,6.1,48.78,17.37,70.12
		C81.07,379.03,159.32,357.87,250.47,357.87"/>
	<path class="st31" d="M250.44,358.11c90.9,0,168.93,20.93,202.19,50.71c11.22-21.21,17.51-44.72,17.51-69.41
		c0-98.4-98.39-187.45-219.71-187.45c-121.2,0-219.66,89.05-219.66,187.45c0,24.69,6.09,48.28,17.31,69.41
		C81.51,379.05,159.56,358.11,250.44,358.11"/>
	<path class="st32" d="M250.41,358.36c90.63,0,168.46,20.73,201.63,50.17c11.19-20.97,17.48-44.24,17.48-68.67
		c0-97.35-98.13-185.89-219.1-185.89c-120.87,0-219.04,88.54-219.04,185.89c0,24.43,6.06,47.79,17.25,68.67
		C81.95,379.09,159.77,358.36,250.41,358.36"/>
	<path class="st33" d="M250.38,358.61c90.38,0,167.99,20.5,201.06,49.63c11.16-20.75,17.43-43.76,17.43-67.94
		c0-96.33-97.85-184.36-218.49-184.36c-120.53,0-218.43,88.03-218.43,184.36c0,24.18,6.03,47.27,17.2,67.94
		C82.39,379.11,160,358.61,250.38,358.61"/>
	<path class="st34" d="M250.38,359.17c90.27,0,167.78,20.38,200.81,49.33c11.12-20.62,17.39-43.48,17.39-67.5
		c0-95.7-97.72-183.23-218.2-183.23C130,157.77,32.24,245.3,32.24,341c0,24.03,6.03,46.97,17.19,67.5
		C82.62,379.55,160.12,359.17,250.38,359.17"/>
	<path class="st35" d="M250.38,359.75c90.14,0,167.54,20.23,200.53,48.99c11.11-20.49,17.37-43.2,17.37-67.06
		c0-95.08-97.59-182.1-217.9-182.1c-120.2,0-217.85,87.02-217.85,182.1c0,23.86,6.02,46.66,17.17,67.06
		C82.84,379.98,160.25,359.75,250.38,359.75"/>
	<path class="st36" d="M250.38,360.31c90.03,0,167.31,20.1,200.27,48.68c11.1-20.35,17.33-42.91,17.33-66.61
		c0-94.47-97.45-180.96-217.6-180.96c-120.05,0-217.55,86.52-217.55,180.96c0,23.7,6.02,46.33,17.14,66.61
		C83.06,380.41,160.36,360.31,250.38,360.31"/>
	<path class="st37" d="M250.38,360.88c89.9,0,167.08,19.97,200,48.37c11.07-20.22,17.3-42.62,17.3-66.18
		c0-93.83-97.31-179.84-217.3-179.84c-119.88,0-217.26,86.01-217.26,179.84c0,23.56,6.02,46.03,17.13,66.18
		C83.29,380.84,160.49,360.88,250.38,360.88"/>
	<path class="st38" d="M250.38,361.45c89.78,0,166.85,19.84,199.74,48.04c11.05-20.09,17.27-42.34,17.27-65.75
		c0-93.21-97.19-178.66-217.01-178.66c-119.72,0-216.96,85.47-216.96,178.66c0,23.41,6.01,45.73,17.09,65.75
		C83.52,381.29,160.61,361.45,250.38,361.45"/>
	<path class="st39" d="M250.38,362.01c89.67,0,166.63,19.71,199.47,47.74c11.03-19.97,17.24-42.08,17.24-65.33
		c0-92.57-97.06-177.56-216.71-177.56c-119.55,0-216.67,85.01-216.67,177.56c0,23.25,5.99,45.43,17.07,65.33
		C83.74,381.72,160.73,362.01,250.38,362.01"/>
	<path class="st40" d="M250.39,362.58c89.53,0,166.39,19.57,199.2,47.41c10.99-19.84,17.2-41.79,17.2-64.86
		c0-91.98-96.92-176.44-216.4-176.44c-119.4,0-216.38,84.48-216.38,176.44c0,23.06,5.99,45.09,17.06,64.86
		C83.97,382.15,160.86,362.58,250.39,362.58"/>
	<path class="st41" d="M250.39,363.16c89.41,0,166.17,19.43,198.94,47.09c10.97-19.69,17.18-41.5,17.18-64.42
		c0-91.34-96.79-175.31-216.12-175.31c-119.24,0-216.08,84-216.08,175.31c0,22.92,5.98,44.79,17.03,64.42
		C84.19,382.58,160.98,363.16,250.39,363.16"/>
	<path class="st42" d="M250.4,363.72c89.29,0,165.95,19.31,198.68,46.79c10.96-19.58,17.14-41.24,17.14-64
		c0-90.71-96.66-174.16-215.82-174.16c-119.07,0-215.79,83.47-215.79,174.16c0,22.76,5.97,44.5,17.01,64
		C84.43,383.03,161.11,363.72,250.4,363.72"/>
	<path class="st43" d="M250.39,364.29c89.17,0,165.72,19.19,198.41,46.46c10.93-19.43,17.11-40.95,17.11-63.56
		c0-90.08-96.52-173.04-215.52-173.04c-118.92,0-215.49,82.99-215.49,173.04c0,22.6,5.97,44.19,16.98,63.56
		C84.65,383.47,161.23,364.29,250.39,364.29"/>
	<path class="st44" d="M250.39,364.86c89.05,0,165.49,19.04,198.15,46.14c10.9-19.31,17.08-40.67,17.08-63.11
		c0-89.47-96.4-171.92-215.23-171.92c-118.75,0-215.2,82.49-215.2,171.92c0,22.44,5.97,43.87,16.97,63.11
		C84.88,383.9,161.35,364.86,250.39,364.86"/>
	<path class="st45" d="M250.4,365.42c88.93,0,165.26,18.91,197.88,45.84c10.88-19.18,17.05-40.41,17.05-62.69
		c0-88.82-96.26-170.78-214.93-170.78c-118.59,0-214.92,81.98-214.92,170.78c0,22.28,5.96,43.56,16.95,62.69
		C85.11,384.33,161.48,365.42,250.4,365.42"/>
	<path class="st46" d="M250.4,365.99c88.81,0,165.03,18.79,197.62,45.53c10.86-19.05,17.01-40.12,17.01-62.24
		c0-88.21-96.12-169.64-214.63-169.64c-118.42,0-214.63,81.45-214.63,169.64c0,22.13,5.97,43.25,16.94,62.24
		C85.34,384.78,161.61,365.99,250.4,365.99"/>
	<path class="st47" d="M250.4,366.55c88.69,0,164.79,18.66,197.35,45.21c10.83-18.91,16.97-39.86,16.97-61.81
		c0-87.58-95.99-168.51-214.33-168.51c-118.27,0-214.34,80.96-214.34,168.51c0,21.96,5.95,42.94,16.92,61.81
		C85.56,385.21,161.72,366.55,250.4,366.55"/>
	<path class="st48" d="M250.4,367.12c88.57,0,164.57,18.52,197.1,44.89c10.8-18.77,16.94-39.55,16.94-61.37
		c0-86.97-95.85-167.39-214.04-167.39c-118.1,0-214.04,80.47-214.04,167.39c0,21.81,5.95,42.65,16.9,61.37
		C85.79,385.64,161.84,367.12,250.4,367.12"/>
	<path class="st49" d="M250.4,367.69c88.45,0,164.35,18.38,196.82,44.56c10.79-18.64,16.91-39.28,16.91-60.93
		c0-86.32-95.72-166.24-213.73-166.24c-117.94,0-213.75,79.95-213.75,166.24c0,21.65,5.95,42.34,16.88,60.93
		C86.01,386.07,161.96,367.69,250.4,367.69"/>
	<path class="st50" d="M250.4,368.27c88.33,0,164.12,18.25,196.56,44.25c10.76-18.52,16.88-39,16.88-60.5
		c0-85.71-95.59-165.13-213.43-165.13c-117.77,0-213.44,79.46-213.44,165.13c0,21.5,5.93,42.02,16.84,60.5
		C86.24,386.52,162.1,368.27,250.4,368.27"/>
	<path class="st51" d="M250.4,368.83c88.21,0,163.89,18.13,196.29,43.93c10.74-18.38,16.85-38.71,16.85-60.07
		c0-85.08-95.45-163.98-213.14-163.98c-117.61,0-213.15,78.94-213.15,163.98c0,21.35,5.92,41.71,16.83,60.07
		C86.47,386.96,162.22,368.83,250.4,368.83"/>
	<path class="st52" d="M250.4,369.4c88.09,0,163.67,17.98,196.03,43.61c10.72-18.25,16.81-38.44,16.81-59.62
		c0-84.45-95.32-162.85-212.84-162.85c-117.45,0-212.85,78.45-212.85,162.85c0,21.18,5.92,41.39,16.8,59.62
		C86.68,387.38,162.34,369.4,250.4,369.4"/>
	<path class="st53" d="M250.4,369.96c87.98,0,163.44,17.85,195.78,43.31c10.68-18.11,16.77-38.16,16.77-59.17
		c0-83.84-95.18-161.75-212.54-161.75c-117.28,0-212.57,77.96-212.57,161.75c0,21.02,5.92,41.08,16.79,59.17
		C86.91,387.81,162.46,369.96,250.4,369.96"/>
	<path class="st54" d="M250.4,370.54c87.86,0,163.21,17.72,195.5,42.99c10.66-17.98,16.76-37.88,16.76-58.75
		c0-83.2-95.06-160.59-212.26-160.59c-117.12,0-212.27,77.44-212.27,160.59c0,20.87,5.9,40.79,16.77,58.75
		C87.14,388.26,162.58,370.54,250.4,370.54"/>
	<path class="st55" d="M250.41,371.1c87.74,0,162.99,17.6,195.23,42.67c10.65-17.85,16.72-37.6,16.72-58.32
		c0-82.56-94.93-159.46-211.95-159.46c-116.97,0-211.98,76.95-211.98,159.46c0,20.72,5.9,40.48,16.74,58.32
		C87.37,388.7,162.7,371.1,250.41,371.1"/>
	<path class="st56" d="M250.41,371.67c87.61,0,162.76,17.45,194.97,42.37c10.63-17.74,16.68-37.34,16.68-57.88
		c0-81.96-94.78-158.34-211.65-158.34c-116.8,0-211.69,76.42-211.69,158.34c0,20.54,5.9,40.16,16.73,57.88
		C87.6,389.12,162.84,371.67,250.41,371.67"/>
	<path class="st57" d="M250.41,372.24c87.49,0,162.52,17.32,194.7,42.03c10.59-17.6,16.65-37.04,16.65-57.43
		c0-81.34-94.66-157.21-211.35-157.21c-116.64,0-211.4,75.94-211.4,157.21c0,20.39,5.9,39.84,16.71,57.43
		C87.83,389.56,162.95,372.24,250.41,372.24"/>
	<path class="st58" d="M250.41,372.81c87.37,0,162.3,17.19,194.44,41.73c10.58-17.48,16.62-36.77,16.62-57.02
		c0-80.7-94.52-156.05-211.06-156.05c-116.47,0-211.1,75.41-211.1,156.05c0,20.25,5.89,39.55,16.7,57.02
		C88.05,390,163.08,372.81,250.41,372.81"/>
	<path class="st59" d="M250.41,373.37c87.25,0,162.07,17.06,194.18,41.41c10.56-17.33,16.59-36.49,16.59-56.56
		c0-80.07-94.38-154.97-210.76-154.97C134.1,203.25,39.6,278.2,39.6,358.22c0,20.08,5.89,39.25,16.67,56.56
		C88.27,390.43,163.2,373.37,250.41,373.37"/>
	<path class="st60" d="M250.41,373.93c87.13,0,161.84,16.92,193.91,41.09c10.53-17.21,16.55-36.21,16.55-56.12
		c0-79.46-94.25-153.8-210.46-153.8c-116.15,0-210.51,74.4-210.51,153.8c0,19.91,5.88,38.93,16.65,56.12
		C88.5,390.86,163.32,373.93,250.41,373.93"/>
	<path class="st61" d="M250.41,374.51c87.01,0,161.61,16.8,193.65,40.78c10.51-17.07,16.51-35.94,16.51-55.7
		c0-78.83-94.11-152.68-210.16-152.68c-115.99,0-210.21,73.92-210.21,152.68c0,19.75,5.85,38.63,16.61,55.7
		C88.73,391.32,163.44,374.51,250.41,374.51"/>
	<path class="st62" d="M250.42,375.08c86.89,0,161.38,16.67,193.38,40.46c10.47-16.94,16.49-35.64,16.49-55.25
		c0-78.21-94-151.55-209.87-151.55c-115.84,0-209.93,73.42-209.93,151.55c0,19.61,5.85,38.31,16.6,55.25
		C88.95,391.75,163.57,375.08,250.42,375.08"/>
	<path class="st63" d="M250.42,375.65c86.76,0,161.15,16.53,193.11,40.14c10.46-16.81,16.46-35.38,16.46-54.82
		c0-77.58-93.86-150.44-209.57-150.44c-115.67,0-209.63,72.93-209.63,150.44c0,19.44,5.85,38,16.57,54.82
		C89.18,392.18,163.69,375.65,250.42,375.65"/>
	<path class="st64" d="M250.42,376.22c86.64,0,160.92,16.39,192.85,39.83c10.44-16.68,16.42-35.09,16.42-54.38
		c0-76.95-93.71-149.29-209.27-149.29c-115.51,0-209.34,72.41-209.34,149.29c0,19.3,5.85,37.7,16.56,54.38
		C89.41,392.61,163.81,376.22,250.42,376.22"/>
</g>
<path class="st1" d="M250.38,305.92c-75.76,0-146.16,12.9-204.25,34.49c34.87,78.27,113.14,132.7,204.25,132.7
	c91.06,0,169.41-54.57,204.3-132.7C396.56,318.82,326.16,305.92,250.38,305.92"/>
</svg>
